Coordinates
version=1
nRows=12
nColumns=46
inDegrees=yes

Units are S.I. units (second, meters, Newtons, ...)
Angles are in degrees.

endheader
time	pelvis_tilt	pelvis_list	pelvis_rotation	pelvis_tx	pelvis_ty	pelvis_tz	bb_angle	bb_tx	bb_ty	bb_tz	hip_flexion_r	hip_adduction_r	hip_rotation_r	knee_angle_r	knee_angle_r_beta	ankle_angle_r	subtalar_angle_r	mtp_angle_r	crank_angle_r	hip_flexion_l	hip_adduction_l	hip_rotation_l	knee_angle_l	knee_angle_l_beta	ankle_angle_l	subtalar_angle_l	mtp_angle_l	crank_angle_l	lumbar_extension	lumbar_bending	lumbar_rotation	arm_flex_r	arm_add_r	arm_rot_r	elbow_flex_r	pro_sup_r	wrist_flex_r	wrist_dev_r	arm_flex_l	arm_add_l	arm_rot_l	elbow_flex_l	pro_sup_l	wrist_flex_l	wrist_dev_l
      2.50000000	    -14.77580763	     11.56629572	      6.68284679	      0.15158501	      1.06051425	     -0.30275972	      0.00000000	      0.50000000	      0.00000000	      0.25000000	     50.82178202	    -13.29975902	     11.98751997	     59.53172066	      1.03902453	    -21.60926910	    -18.61294384	      0.00000000	      0.00000000	     82.02706941	      1.32042194	     -5.90479364	     92.33498783	      1.61154955	     23.31608036	     -0.80595633	      0.00000000	      0.00000000	    -64.36019033	     -5.04415501	     -9.45496148	     89.54951275	     -9.50850278	     23.02053420	     41.37208656	     25.20161246	      0.00000000	      0.00000000	     89.52690509	     -2.46443023	     18.32820615	     49.43398485	     27.98977221	      0.00000000	      0.00000000
      2.50500000	    -14.75460318	     11.55519389	      6.52666418	      0.15170427	      1.06080726	     -0.30255337	      0.00000000	      0.50000000	      0.00000000	      0.25000000	     51.03643490	    -13.10102157	     12.14288261	     60.38328302	      1.05388710	    -21.25469552	    -18.71956772	      0.00000000	      0.00000000	     81.62079928	      1.22882484	     -6.00390194	     91.38270163	      1.59492902	     23.12448518	     -0.93728288	      0.00000000	      0.00000000	    -64.42723071	     -5.20412966	     -9.28890759	     89.55052974	     -9.80112181	     22.90876490	     40.45612288	     30.46569657	      0.00000000	      0.00000000	     89.52835619	     -2.25911717	     17.93122529	     48.70584694	     32.46654832	      0.00000000	      0.00000000
      2.51000000	    -14.70085738	     11.49365685	      6.35303025	      0.15177748	      1.06116265	     -0.30233150	      0.00000000	      0.50000000	      0.00000000	      0.25000000	     51.21221102	    -12.85517814	     12.25857277	     61.20666722	      1.06825787	    -20.91854979	    -18.90083838	      0.00000000	      0.00000000	     81.17312869	      1.11997359	     -6.03649331	     90.40886311	      1.57793233	     22.87005185	     -1.05511015	      0.00000000	      0.00000000	    -64.53324604	     -5.28976472	     -9.04941539	     89.54270341	     -9.75359745	     21.87151466	     40.50802833	     31.64394539	      0.00000000	      0.00000000	     89.53107403	     -2.01269987	     17.38590362	     48.58216095	     33.54444240	      0.00000000	      0.00000000
      2.51500000	    -14.73392251	     11.40644574	      6.19219313	      0.15195807	      1.06124976	     -0.30205140	      0.00000000	      0.50000000	      0.00000000	      0.25000000	     51.52477025	    -12.61555141	     12.34087438	     62.12592888	      1.08430201	    -20.38519145	    -18.70084466	      0.00000000	      0.00000000	     80.84044909	      0.98162807	     -6.07942661	     89.47966100	      1.56171470	     22.67217622	     -1.20567842	      0.00000000	      0.00000000	    -64.48992338	     -5.43497684	     -8.83612498	     89.54440858	     -9.93712999	     22.11246430	     40.28644170	     31.52483632	      0.00000000	      0.00000000	     89.52683790	     -1.78396296	     17.36326006	     48.41348251	     33.42394729	      0.00000000	      0.00000000
      2.52000000	    -14.68348375	     11.29525573	      6.03553866	      0.15212354	      1.06156797	     -0.30185463	      0.00000000	      0.50000000	      0.00000000	      0.25000000	     51.71648204	    -12.37114657	     12.38302819	     63.00219964	      1.09959582	    -19.92703090	    -18.69795225	      0.00000000	      0.00000000	     80.39301217	      0.86768140	     -6.08632838	     88.50795766	      1.54475528	     22.39053763	     -1.30948713	      0.00000000	      0.00000000	    -64.54524987	     -5.55725878	     -8.56200310	     89.53855816	    -10.13738297	     21.96460477	     40.22315129	     31.83423239	      0.00000000	      0.00000000	     89.52590442	     -1.50247982	     17.19022763	     48.29380908	     33.67763889	      0.00000000	      0.00000000
      2.52500000	    -14.62255842	     11.18642294	      5.84842671	      0.15237992	      1.06187182	     -0.30161614	      0.00000000	      0.50000000	      0.00000000	      0.25000000	     51.91571239	    -12.13853439	     12.39389611	     63.90403777	      1.11533586	    -19.36844570	    -18.53996604	      0.00000000	      0.00000000	     79.93430371	      0.71658181	     -6.10883885	     87.54407401	      1.52793233	     22.09885864	     -1.40429159	      0.00000000	      0.00000000	    -64.59780985	     -5.66140337	     -8.29861334	     89.53831634	    -10.48425168	     22.57584861	     40.30324679	     31.53412683	      0.00000000	      0.00000000	     89.52018455	     -1.34590285	     17.23013868	     48.29012941	     33.34057469	      0.00000000	      0.00000000
      2.53000000	    -14.51800214	     11.09667144	      5.67134925	      0.15263423	      1.06227138	     -0.30134954	      0.00000000	      0.50000000	      0.00000000	      0.25000000	     52.08135702	    -11.92302627	     12.39745167	     64.80335639	      1.13103194	    -19.02941775	    -18.72366578	      0.00000000	      0.00000000	     79.40154876	      0.57166885	     -6.17076833	     86.54532828	      1.51050093	     21.75833193	     -1.51415563	      0.00000000	      0.00000000	    -64.75167878	     -5.74539058	     -8.08491866	     89.52502852	    -10.54660676	     22.09535502	     40.56891735	     31.69679621	      0.00000000	      0.00000000	     89.51424535	     -1.15826557	     16.96095272	     48.41899178	     33.48938131	      0.00000000	      0.00000000
      2.53500000	    -14.56853232	     10.91336180	      5.48750094	      0.15298373	      1.06237550	     -0.30116431	      0.00000000	      0.50000000	      0.00000000	      0.25000000	     52.39680532	    -11.66028569	     12.35520050	     65.69609862	      1.14661323	    -18.31416339	    -18.35168398	      0.00000000	      0.00000000	     79.05908755	      0.38519734	     -6.13533458	     85.60047214	      1.49401008	     21.32844016	     -1.76476932	      0.00000000	      0.00000000	    -64.63654244	     -5.81342031	     -7.74991739	     89.53529519	    -10.70354784	     22.53078258	     40.35432218	     31.41016892	      0.00000000	      0.00000000	     89.50878181	     -1.01433746	     17.03482128	     48.12510809	     33.19718978	      0.00000000	      0.00000000
      2.54000000	    -14.48399693	     10.85259044	      5.27577963	      0.15335081	      1.06282093	     -0.30089284	      0.00000000	      0.50000000	      0.00000000	      0.25000000	     52.58787102	    -11.46286779	     12.36625352	     66.57387650	      1.16193334	    -17.95039997	    -18.42908994	      0.00000000	      0.00000000	     78.49933739	      0.23786252	     -6.23050258	     84.57009246	      1.47602656	     20.97415910	     -1.95749164	      0.00000000	      0.00000000	    -64.84292435	     -5.87515675	     -7.53228751	     89.51753028	    -10.88070511	     22.07626032	     41.17567508	     31.69063762	      0.00000000	      0.00000000	     89.49581730	     -0.98260323	     16.72408107	     48.67806831	     33.42837335	      0.00000000	      0.00000000
      2.54500000	    -14.53607651	     10.56657760	      5.04019398	      0.15369216	      1.06278960	     -0.30059762	      0.00000000	      0.50000000	      0.00000000	      0.25000000	     52.93980917	    -11.07331510	     12.27333496	     67.50217454	      1.17813520	    -17.36820956	    -18.13029619	      0.00000000	      0.00000000	     78.18421614	     -0.04629825	     -6.14004457	     83.65646397	      1.46008074	     20.47358326	     -2.31176853	      0.00000000	      0.00000000	    -64.65101455	     -5.93563780	     -7.13217434	     89.52789921	    -10.89630100	     22.49859976	     40.66676038	     31.38699188	      0.00000000	      0.00000000	     89.49208441	     -0.89566997	     16.81931356	     48.10081961	     33.13356638	      0.00000000	      0.00000000
      2.55000000	    -14.19804359	     10.41829075	      4.87780628	      0.15414495	      1.06371792	     -0.30053013	      0.00000000	      0.50000000	      0.00000000	      0.25000000	     52.80768137	    -10.94790196	     12.02506554	     68.29765051	      1.19201887	    -17.08612871	    -18.35058680	      0.00000000	      0.00000000	     77.32283198	     -0.10833789	     -6.08720414	     82.62283580	      1.44204052	     20.29542153	     -2.34099643	      0.00000000	      0.00000000	    -65.13924729	     -5.86724079	     -6.91177692	     89.51097936	    -10.89868385	     21.61868042	     41.59968371	     32.18393605	      0.00000000	      0.00000000	     89.47140825	     -0.77622192	     16.33253600	     48.92363655	     33.89238003	      0.00000000	      0.00000000
      2.55500000	    -14.48298349	     10.20664912	      4.57125733	      0.15445644	      1.06324903	     -0.30029597	      0.00000000	      0.50000000	      0.00000000	      0.25000000	     53.50072495	    -10.56359079	     12.09977985	     69.30418526	      1.20958622	    -16.32523914	    -17.76373254	      0.00000000	      0.00000000	     77.22728889	     -0.44412974	     -6.16459053	     81.65753551	      1.42519285	     19.51522362	     -3.02268316	      0.00000000	      0.00000000	    -64.64293748	     -6.12452477	     -6.55494298	     89.53216435	    -11.10939338	     22.80557391	     40.43750726	     31.67206592	      0.00000000	      0.00000000	     89.46858988	     -0.75599410	     16.75183708	     47.85318103	     33.41132313	      0.00000000	      0.00000000
